# Blender v2.78 (sub 0) OBJ File: 'car.blend'
# www.blender.org
mtllib car.mtl
o Cube.009
v -1.000000 2.008889 1.000000
v -1.000000 2.116576 1.000000
v -1.000000 2.008889 -1.000000
v -1.000000 2.116576 -1.000000
v 1.000000 2.008889 1.000000
v 1.000000 2.116576 1.000000
v 1.000000 2.008889 -1.000000
v 1.000000 2.116576 -1.000000
vn -1.0000 0.0000 0.0000
vn 0.0000 0.0000 -1.0000
vn 1.0000 0.0000 0.0000
vn 0.0000 0.0000 1.0000
vn 0.0000 -1.0000 0.0000
vn 0.0000 1.0000 0.0000
usemtl Material
s off
f 1//1 2//1 4//1 3//1
f 3//2 4//2 8//2 7//2
f 7//3 8//3 6//3 5//3
f 5//4 6//4 2//4 1//4
f 3//5 7//5 5//5 1//5
f 8//6 4//6 2//6 6//6
o Cube.008
v -0.692973 0.932413 -0.751598
v -0.692973 1.999844 -0.751598
v -0.692973 0.932413 -0.627334
v -0.692973 1.999844 -0.627334
v -0.568709 0.932413 -0.751598
v -0.568709 1.999844 -0.751598
v -0.568709 0.932413 -0.627334
v -0.568709 1.999844 -0.627334
vn 1.0000 0.0000 0.0000
vn 0.0000 0.0000 -1.0000
vn -1.0000 0.0000 0.0000
vn 0.0000 0.0000 1.0000
vn 0.0000 1.0000 0.0000
vn 0.0000 -1.0000 0.0000
usemtl Material
s off
f 9//7 10//7 12//7 11//7
f 11//8 12//8 16//8 15//8
f 15//9 16//9 14//9 13//9
f 13//10 14//10 10//10 9//10
f 11//11 15//11 13//11 9//11
f 16//12 12//12 10//12 14//12
o Cube.007
v 0.491875 0.932413 -0.751598
v 0.491875 1.999844 -0.751598
v 0.491875 0.932413 -0.627334
v 0.491875 1.999844 -0.627334
v 0.616140 0.932413 -0.751598
v 0.616140 1.999844 -0.751598
v 0.616140 0.932413 -0.627334
v 0.616140 1.999844 -0.627334
vn 1.0000 0.0000 0.0000
vn 0.0000 0.0000 -1.0000
vn -1.0000 0.0000 0.0000
vn 0.0000 0.0000 1.0000
vn 0.0000 1.0000 0.0000
vn 0.0000 -1.0000 0.0000
usemtl Material
s off
f 17//13 18//13 20//13 19//13
f 19//14 20//14 24//14 23//14
f 23//15 24//15 22//15 21//15
f 21//16 22//16 18//16 17//16
f 19//17 23//17 21//17 17//17
f 24//18 20//18 18//18 22//18
o Cube.006
v 0.491875 0.932413 0.751598
v 0.491875 1.999844 0.751598
v 0.491875 0.932413 0.627334
v 0.491875 1.999844 0.627334
v 0.616140 0.932413 0.751598
v 0.616140 1.999844 0.751598
v 0.616140 0.932413 0.627334
v 0.616140 1.999844 0.627334
vn -1.0000 0.0000 0.0000
vn 0.0000 0.0000 -1.0000
vn 1.0000 0.0000 0.0000
vn 0.0000 0.0000 1.0000
vn 0.0000 -1.0000 0.0000
vn 0.0000 1.0000 0.0000
usemtl Material
s off
f 25//19 26//19 28//19 27//19
f 27//20 28//20 32//20 31//20
f 31//21 32//21 30//21 29//21
f 29//22 30//22 26//22 25//22
f 27//23 31//23 29//23 25//23
f 32//24 28//24 26//24 30//24
o Cube.005
v -0.692973 0.932413 0.751598
v -0.692973 1.999844 0.751598
v -0.692973 0.932413 0.627334
v -0.692973 1.999844 0.627334
v -0.568709 0.932413 0.751598
v -0.568709 1.999844 0.751598
v -0.568709 0.932413 0.627334
v -0.568709 1.999844 0.627334
vn -1.0000 0.0000 0.0000
vn 0.0000 0.0000 -1.0000
vn 1.0000 0.0000 0.0000
vn 0.0000 0.0000 1.0000
vn 0.0000 -1.0000 0.0000
vn 0.0000 1.0000 0.0000
usemtl Material
s off
f 33//25 34//25 36//25 35//25
f 35//26 36//26 40//26 39//26
f 39//27 40//27 38//27 37//27
f 37//28 38//28 34//28 33//28
f 35//29 39//29 37//29 33//29
f 40//30 36//30 34//30 38//30
o Cube.004
v -1.454595 -0.108844 -1.157250
v -1.454595 0.496951 -1.157250
v -1.454595 -0.108844 -0.551455
v -1.454595 0.496951 -0.551455
v -0.848800 -0.108844 -1.157250
v -0.848800 0.496951 -1.157250
v -0.848800 -0.108844 -0.551455
v -0.848800 0.496951 -0.551455
vn 1.0000 0.0000 0.0000
vn 0.0000 0.0000 -1.0000
vn -1.0000 0.0000 0.0000
vn 0.0000 0.0000 1.0000
vn 0.0000 1.0000 0.0000
vn 0.0000 -1.0000 0.0000
usemtl None
s off
f 41//31 42//31 44//31 43//31
f 43//32 44//32 48//32 47//32
f 47//33 48//33 46//33 45//33
f 45//34 46//34 42//34 41//34
f 43//35 47//35 45//35 41//35
f 48//36 44//36 42//36 46//36
o Cube.003
v 0.797234 -0.108844 -1.157250
v 0.797234 0.496951 -1.157250
v 0.797234 -0.108844 -0.551455
v 0.797234 0.496951 -0.551455
v 1.403028 -0.108844 -1.157250
v 1.403028 0.496951 -1.157250
v 1.403028 -0.108844 -0.551455
v 1.403028 0.496951 -0.551455
vn 1.0000 0.0000 0.0000
vn 0.0000 0.0000 -1.0000
vn -1.0000 0.0000 0.0000
vn 0.0000 0.0000 1.0000
vn 0.0000 1.0000 0.0000
vn 0.0000 -1.0000 0.0000
usemtl Reifen
s off
f 49//37 50//37 52//37 51//37
f 51//38 52//38 56//38 55//38
f 55//39 56//39 54//39 53//39
f 53//40 54//40 50//40 49//40
f 51//41 55//41 53//41 49//41
f 56//42 52//42 50//42 54//42
o Cube.002
v 0.797234 -0.108844 1.157250
v 0.797234 0.496951 1.157250
v 0.797234 -0.108844 0.551455
v 0.797234 0.496951 0.551455
v 1.403028 -0.108844 1.157250
v 1.403028 0.496951 1.157250
v 1.403028 -0.108844 0.551455
v 1.403028 0.496951 0.551455
vt 0.5002 0.2500
vt 0.5002 0.0002
vt 0.9998 0.0002
vt 0.9998 0.2500
vt 0.5002 0.7504
vt 0.5002 0.5006
vt 0.9998 0.5006
vt 0.9998 0.7504
vt 0.9998 0.2504
vt 0.9998 0.5002
vt 0.5002 0.5002
vt 0.5002 0.2504
vt 0.4998 0.5006
vt 0.4998 0.7504
vt 0.0002 0.7504
vt 0.0002 0.5006
vt 0.4998 0.5002
vt 0.0002 0.5002
vt 0.0002 0.2504
vt 0.4998 0.2504
vt 0.9882 0.9952
vt 0.0029 0.9952
vt 0.0029 0.5026
vt 0.9882 0.5026
vn -1.0000 0.0000 0.0000
vn 0.0000 0.0000 -1.0000
vn 1.0000 0.0000 0.0000
vn 0.0000 0.0000 1.0000
vn 0.0000 -1.0000 0.0000
vn 0.0000 1.0000 0.0000
usemtl Reifen_reifen
s off
f 57/1/43 58/2/43 60/3/43 59/4/43
f 59/5/44 60/6/44 64/7/44 63/8/44
f 63/9/45 64/10/45 62/11/45 61/12/45
f 61/13/46 62/14/46 58/15/46 57/16/46
f 59/17/47 63/18/47 61/19/47 57/20/47
f 64/21/48 60/22/48 58/23/48 62/24/48
o Cube.001
v -1.454595 -0.108844 1.157250
v -1.454595 0.496951 1.157250
v -1.454595 -0.108844 0.551455
v -1.454595 0.496951 0.551455
v -0.848800 -0.108844 1.157250
v -0.848800 0.496951 1.157250
v -0.848800 -0.108844 0.551455
v -0.848800 0.496951 0.551455
vn -1.0000 0.0000 0.0000
vn 0.0000 0.0000 -1.0000
vn 1.0000 0.0000 0.0000
vn 0.0000 0.0000 1.0000
vn 0.0000 -1.0000 0.0000
vn 0.0000 1.0000 0.0000
usemtl None
s off
f 65//49 66//49 68//49 67//49
f 67//50 68//50 72//50 71//50
f 71//51 72//51 70//51 69//51
f 69//52 70//52 66//52 65//52
f 67//53 71//53 69//53 65//53
f 72//54 68//54 66//54 70//54
o Cube
v 1.804130 0.013834 -0.898078
v 1.804130 0.013834 0.898078
v -1.804131 0.013834 0.898078
v -1.804130 0.013834 -0.898078
v 1.804131 0.947320 -0.898077
v 1.804129 0.947320 0.898078
v -1.804131 0.947320 0.898077
v -1.804130 0.947320 -0.898078
vn 0.0000 -1.0000 -0.0000
vn 0.0000 1.0000 -0.0000
vn 1.0000 0.0000 0.0000
vn -0.0000 -0.0000 1.0000
vn -1.0000 -0.0000 -0.0000
vn 0.0000 0.0000 -1.0000
usemtl Material
s off
f 73//55 74//55 75//55 76//55
f 77//56 80//56 79//56 78//56
f 73//57 77//57 78//57 74//57
f 74//58 78//58 79//58 75//58
f 75//59 79//59 80//59 76//59
f 77//60 73//60 76//60 80//60
